<svg width="1354" height="250" viewBox="0 0 1354 250" fill="none" xmlns="http://www.w3.org/2000/svg">
<path d="M455.735 190.166C450.603 190.166 446.658 188.726 443.899 185.845C441.141 182.963 439.761 178.962 439.761 173.84V67.2395C439.761 62.1176 441.237 58.1161 444.188 55.235C447.139 52.3539 451.244 50.9133 456.505 50.9133C461.124 50.9133 464.748 51.8097 467.378 53.6024C470.009 55.395 472.414 58.3402 474.595 62.4377L515.78 136.578H509.237L550.422 62.4377C552.731 58.3402 555.201 55.395 557.831 53.6024C560.461 51.8097 563.957 50.9133 568.32 50.9133C573.58 50.9133 577.589 52.3539 580.348 55.235C583.106 58.1161 584.486 62.1176 584.486 67.2395V173.84C584.486 178.962 583.138 182.963 580.444 185.845C577.75 188.726 573.772 190.166 568.512 190.166C563.38 190.166 559.435 188.726 556.676 185.845C553.918 182.963 552.539 178.962 552.539 173.84V107.767H556.58L525.403 161.547C523.735 164.369 521.907 166.481 519.918 167.886C517.929 169.29 515.267 169.994 511.931 169.999C508.724 169.999 506.061 169.294 503.944 167.886C501.827 166.477 499.935 164.364 498.267 161.547L467.09 107.575H471.709V173.84C471.709 178.962 470.361 182.963 467.667 185.845C464.973 188.726 460.995 190.166 455.735 190.166Z" fill="#FDF4F4"/>
<path d="M654.558 190.55C643.011 190.55 633.035 188.502 624.631 184.404C616.228 180.307 609.78 174.544 605.29 167.118C600.799 159.695 598.554 150.988 598.554 140.996C598.554 131.268 600.703 122.689 605.001 115.258C609.198 107.931 615.32 101.887 622.707 97.7792C630.212 93.5536 638.777 91.4408 648.399 91.4408C655.456 91.4408 661.871 92.5932 667.644 94.8981C673.222 97.0727 678.25 100.45 682.367 104.79C686.409 109.082 689.52 114.236 691.701 120.252C693.882 126.268 694.973 133.054 694.973 140.611C694.973 143.044 694.267 144.901 692.856 146.182C691.444 147.462 689.263 148.102 686.312 148.102H627.229V131.776H669.761L666.875 134.273C666.875 129.54 666.233 125.666 664.95 122.653C663.667 119.639 661.775 117.398 659.273 115.93C656.771 114.462 653.66 113.726 649.939 113.721C645.957 113.721 642.493 114.65 639.546 116.506C636.6 118.363 634.387 121.084 632.907 124.669C631.427 128.255 630.689 132.736 630.694 138.115V139.651C630.694 148.871 632.714 155.401 636.756 159.243C640.797 163.084 647.052 165.005 655.52 165.005C658.781 164.964 662.033 164.643 665.239 164.044C668.821 163.427 672.334 162.462 675.727 161.163C679.061 159.883 681.948 159.659 684.388 160.491C686.678 161.218 688.67 162.667 690.065 164.621C691.446 166.64 692.244 168.998 692.375 171.439C692.577 174.023 691.971 176.607 690.642 178.834C689.295 181.139 687.082 182.932 684.003 184.212C679.483 186.314 674.737 187.893 669.858 188.918C664.83 190.002 659.701 190.549 654.558 190.55Z" fill="#FDF4F4"/>
<path d="M740.43 190.55C727.982 190.55 718.873 187.221 713.102 180.563C707.33 173.904 704.443 163.916 704.441 150.599V68.1999C704.441 62.6981 705.885 58.4405 708.771 55.4271C711.658 52.4136 715.924 50.9091 721.57 50.9133C726.958 50.9133 731.16 52.4179 734.175 55.4271C737.19 58.4362 738.698 62.6938 738.698 68.1999V149.447C738.698 154.185 739.628 157.642 741.488 159.819C743.349 161.996 745.754 163.084 748.705 163.084C749.643 163.08 750.577 162.983 751.496 162.796C752.478 162.602 753.477 162.505 754.479 162.508C756.788 162.384 758.488 163.152 759.579 164.813C760.669 166.473 761.215 169.866 761.215 174.992C761.215 179.474 760.317 182.803 758.52 184.98C756.724 187.157 754.03 188.63 750.437 189.398C749.283 189.526 747.743 189.75 745.818 190.07C744.039 190.378 742.236 190.538 740.43 190.55Z" fill="#FDF4F4"/>
<path d="M812.769 190.55C802.249 190.55 793.075 188.566 785.249 184.596C777.592 180.787 771.231 174.807 766.966 167.406C762.604 159.915 760.422 151.111 760.422 140.996C760.422 133.313 761.641 126.43 764.079 120.348C766.414 114.418 770.028 109.074 774.664 104.694C779.283 100.342 784.8 97.0451 791.215 94.8021C797.63 92.5591 804.815 91.4387 812.769 91.4408C823.29 91.4408 832.464 93.4256 840.29 97.3951C848.117 101.365 854.179 107.063 858.477 114.49C862.775 121.916 864.924 130.752 864.924 140.996C864.924 148.679 863.705 155.529 861.267 161.547C858.902 167.461 855.292 172.799 850.683 177.201C845.955 181.687 840.308 185.094 834.132 187.189C827.717 189.43 820.596 190.55 812.769 190.55ZM812.769 165.005C816.234 165.005 819.281 164.204 821.911 162.604C824.541 161.003 826.626 158.41 828.166 154.825C829.705 151.244 830.475 146.634 830.475 140.996C830.475 132.421 828.807 126.242 825.471 122.461C822.135 118.679 817.901 116.79 812.769 116.794C809.516 116.739 806.313 117.604 803.532 119.291C800.837 120.956 798.72 123.549 797.181 127.07C795.641 130.592 794.871 135.233 794.871 140.996C794.871 149.447 796.539 155.561 799.875 159.339C803.211 163.116 807.509 165.005 812.769 165.005Z" fill="#FDF4F4"/>
<path d="M905.743 190.166C899.97 190.166 895.543 188.566 892.464 185.364C889.385 182.163 887.845 177.745 887.845 172.111V81.6449H857.63C852.879 81.6449 849.254 80.3644 846.757 77.8035C844.259 75.2425 843.008 71.6571 843.004 67.0474C843.004 62.4376 844.255 58.9163 846.757 56.4834C849.258 54.0504 852.883 52.834 857.63 52.834H953.471C958.343 52.834 961.999 54.0504 964.441 56.4834C966.883 58.9163 968.102 62.4376 968.098 67.0474C968.098 71.7852 966.879 75.4026 964.441 77.8995C962.003 80.3965 958.347 81.6449 953.471 81.6449H923.256V172.111C923.256 177.748 921.781 182.165 918.83 185.364C915.879 188.563 911.517 190.164 905.743 190.166Z" fill="#FDF4F4"/>
<path d="M985.05 190.55C976.838 190.55 970.103 189.046 964.842 186.037C959.582 183.027 955.637 178.482 953.006 172.399C950.376 166.319 949.062 158.732 949.064 149.639V109.111C949.064 103.607 950.539 99.3498 953.488 96.3385C956.436 93.3273 960.67 91.8227 966.189 91.8248C971.578 91.8248 975.78 93.3294 978.795 96.3385C981.81 99.3477 983.318 103.605 983.318 109.111V150.407C983.318 155.017 984.28 158.474 986.204 160.779C988.129 163.084 991.145 164.236 995.253 164.236C999.867 164.236 1003.68 162.572 1006.7 159.242C1009.72 155.913 1011.23 151.495 1011.22 145.989V109.111C1011.22 103.607 1012.67 99.3498 1015.55 96.3385C1018.44 93.3273 1022.64 91.8227 1028.16 91.8248C1033.68 91.8248 1037.94 93.3294 1040.96 96.3385C1043.98 99.3477 1045.48 103.605 1045.48 109.111V172.88C1045.48 184.404 1039.9 190.166 1028.74 190.166C1023.35 190.166 1019.18 188.662 1016.23 185.652C1013.28 182.643 1011.8 178.386 1011.8 172.88V161.547L1014.88 170.959C1012.06 177.233 1008.11 182.067 1003.04 185.46C997.976 188.854 991.978 190.55 985.05 190.55Z" fill="#FDF4F4"/>
<path d="M1076.12 190.166C1070.47 190.166 1066.2 188.662 1063.32 185.653C1060.44 182.643 1058.99 178.386 1058.99 172.88V109.112C1058.99 103.608 1060.43 99.3499 1063.32 96.3387C1066.21 93.3274 1070.34 91.8228 1075.73 91.8249C1080.99 91.8249 1085.07 93.3295 1087.95 96.3387C1090.84 99.3478 1092.28 103.605 1092.28 109.112V118.139L1090.17 110.264C1093.08 104.42 1097.67 99.5732 1103.35 96.3387C1109.06 93.0734 1115.57 91.4408 1122.88 91.4408C1130.45 91.4408 1136.68 92.9454 1141.55 95.9545C1146.43 98.9637 1150.08 103.445 1152.52 109.4C1154.96 115.354 1156.18 123.005 1156.18 132.352V172.88C1156.18 178.386 1154.7 182.643 1151.75 185.653C1148.8 188.662 1144.57 190.166 1139.05 190.166C1133.53 190.166 1129.3 188.662 1126.35 185.653C1123.4 182.643 1121.92 178.386 1121.92 172.88V133.697C1121.92 128.063 1120.93 123.997 1118.94 121.5C1116.95 119.003 1114.03 117.755 1110.18 117.755C1105.05 117.755 1100.94 119.387 1097.87 122.653C1094.79 125.918 1093.25 130.304 1093.25 135.81V172.88C1093.25 184.404 1087.54 190.166 1076.12 190.166Z" fill="#FDF4F4"/>
<path d="M1221.92 190.55C1210.37 190.55 1200.4 188.502 1191.99 184.404C1183.59 180.307 1177.14 174.544 1172.65 167.118C1168.16 159.695 1165.92 150.988 1165.92 140.996C1165.92 131.268 1168.07 122.689 1172.36 115.258C1176.56 107.931 1182.68 101.887 1190.07 97.7792C1197.57 93.5536 1206.14 91.4408 1215.76 91.4408C1222.82 91.4408 1229.23 92.5932 1235.01 94.8981C1240.58 97.0727 1245.61 100.45 1249.73 104.79C1253.77 109.082 1256.88 114.236 1259.06 120.252C1261.24 126.268 1262.33 133.054 1262.33 140.611C1262.33 143.044 1261.63 144.901 1260.22 146.182C1258.81 147.462 1256.63 148.102 1253.67 148.102H1194.58V131.776H1237.11L1234.23 134.273C1234.23 129.54 1233.59 125.666 1232.3 122.653C1231.02 119.639 1229.13 117.398 1226.63 115.93C1224.12 114.462 1221.01 113.726 1217.29 113.721C1213.31 113.721 1209.85 114.65 1206.9 116.506C1203.95 118.363 1201.74 121.084 1200.26 124.669C1198.78 128.255 1198.04 132.736 1198.05 138.115V139.651C1198.05 148.871 1200.07 155.401 1204.11 159.243C1208.15 163.084 1214.4 165.005 1222.87 165.005C1226.13 164.964 1229.39 164.643 1232.59 164.044C1236.17 163.427 1239.69 162.462 1243.08 161.163C1246.41 159.883 1249.3 159.659 1251.74 160.491C1254.03 161.218 1256.02 162.667 1257.42 164.621C1258.8 166.64 1259.6 168.998 1259.73 171.439C1259.93 174.023 1259.32 176.607 1258 178.834C1256.65 181.139 1254.43 182.932 1251.36 184.212C1246.84 186.314 1242.09 187.893 1237.21 188.918C1232.19 190.001 1227.06 190.548 1221.92 190.55Z" fill="#FDF4F4"/>
<path d="M1310.51 190.55C1304.67 190.546 1298.85 190.096 1293.09 189.206C1287.57 188.398 1282.17 186.915 1277.02 184.788C1273.94 183.508 1271.73 181.747 1270.38 179.506C1269.07 177.407 1268.4 174.97 1268.46 172.495C1268.5 170.128 1269.23 167.824 1270.57 165.869C1271.87 163.923 1273.76 162.442 1275.96 161.643C1278.2 160.811 1280.74 160.907 1283.56 161.931C1288.95 163.98 1293.79 165.389 1298.09 166.157C1302.19 166.907 1306.34 167.293 1310.51 167.31C1315.25 167.31 1318.65 166.637 1320.71 165.293C1322.76 163.948 1323.79 162.188 1323.79 160.011C1323.79 158.09 1323.11 156.617 1321.76 155.593C1320.42 154.569 1318.52 153.864 1316.09 153.48L1294.72 150.215C1286.77 148.807 1280.61 145.861 1276.25 141.38C1271.89 136.898 1269.71 131.008 1269.71 123.709C1269.71 117.179 1271.6 111.512 1275.38 106.711C1279.17 101.909 1284.36 98.1633 1290.97 95.4743C1297.58 92.7852 1305.18 91.4407 1313.77 91.4407C1319.07 91.4004 1324.35 91.8505 1329.56 92.7852C1334.4 93.7117 1339.11 95.1942 1343.6 97.2029C1346.3 98.4834 1348.23 100.212 1349.38 102.389C1350.51 104.471 1350.99 106.85 1350.73 109.207C1350.47 111.564 1349.61 113.814 1348.23 115.738C1346.87 117.685 1344.91 119.136 1342.64 119.868C1340.33 120.636 1337.77 120.444 1334.94 119.291C1331.25 117.801 1327.46 116.582 1323.59 115.642C1320.57 114.912 1317.47 114.525 1314.35 114.489C1308.96 114.489 1305.21 115.194 1303.1 116.602C1300.98 118.011 1299.93 119.868 1299.92 122.172C1299.92 122.935 1300.08 123.689 1300.4 124.385C1300.71 125.08 1301.17 125.701 1301.75 126.206C1302.96 127.358 1304.73 128.127 1307.04 128.511L1328.4 131.968C1336.74 133.379 1343.09 136.196 1347.45 140.419C1351.81 144.643 1354 150.405 1354 157.706C1354 168.078 1350.02 176.145 1342.07 181.907C1334.11 187.669 1323.59 190.55 1310.51 190.55Z" fill="#FDF4F4"/>
<path d="M6.88268 46.8066C42.0345 47.0634 71.5264 63.0346 100.895 81.5098V108.101C71.2633 89.4721 41.5384 73.4042 6.00705 73.4042C4.15368 73.4042 2.35136 73.4331 0.600098 73.4909C1.60558 64.7351 3.57658 55.5725 6.88268 46.8066Z" fill="#FDF4F4"/>
<path d="M307.248 118.75C302.866 131.027 296.061 142.757 287.708 153.797C271.124 160.095 253.981 164.283 237.663 164.283C231.9 164.285 226.142 163.951 220.417 163.283C222.722 158.452 223.918 153.166 223.916 147.812V137.052C228.398 137.47 232.98 137.682 237.663 137.689C260.51 137.689 284.967 129.513 307.248 118.75Z" fill="#FDF4F4"/>
<path d="M81.9972 125.889C74.6424 129.882 68.7746 136.15 65.2703 143.757C47.7976 135.492 29.5492 129.803 9.47285 129.213C5.38434 120.644 2.41451 111.772 0.889648 102.646C2.54769 102.595 4.25457 102.569 6.01027 102.569C34.0039 102.556 58.4117 112.539 81.9972 125.889Z" fill="#FDF4F4"/>
<path d="M249.689 192.731C238.834 201.721 227.497 210.112 215.729 217.865L215.063 218.312C214.056 218.154 213.05 217.988 212.047 217.815C182.082 212.58 156.393 198.77 131.908 183.569C137.26 177.876 140.656 170.62 141.603 162.859C144.429 164.54 147.284 166.185 150.17 167.794C157.225 178.464 169.76 185.602 184.023 185.602C185.649 185.602 187.273 185.509 188.888 185.322C203.973 190.357 220.087 193.438 237.663 193.438C241.682 193.433 245.697 193.197 249.689 192.731Z" fill="#FDF4F4"/>
<path d="M184.073 237.117C177.747 240.645 172.181 243.569 167.719 245.836C166.574 246.421 165.503 246.959 164.506 247.45C160.709 249.358 156.372 249.903 152.221 248.994C150.702 248.664 149.231 248.146 147.839 247.453C146.645 246.86 145.342 246.204 143.931 245.486C126.696 236.675 109.995 226.851 93.9165 216.068C87.0978 211.48 80.1161 206.502 73.1809 201.164C56.8802 188.607 40.8691 174.099 27.981 158.075C40.4929 160.409 52.3555 164.613 63.8719 169.958C68.9659 185.296 84.1047 196.422 101.94 196.422C104.294 196.424 106.644 196.228 108.965 195.835C119.952 202.864 130.983 210.073 142.363 216.778C155.644 224.607 169.394 231.746 184.073 237.117Z" fill="#FDF4F4"/>
<path d="M312.645 87.4081C300.043 93.8132 286.616 99.5148 273.085 103.453C261.196 106.914 249.23 109.004 237.674 109.004C236.382 109.004 235.098 108.986 233.822 108.951C233.395 108.951 232.976 108.927 232.55 108.914C256.335 83.9571 283.123 67.1657 308.407 55.8591C308.46 56.0559 308.517 56.2492 308.567 56.4426C310.265 62.8807 311.43 69.4482 312.049 76.0782C312.412 79.986 312.599 83.7837 312.645 87.4081Z" fill="#FDF4F4"/>
<path d="M302.151 39.728C300.275 40.4882 298.388 41.2807 296.491 42.1054C272.396 52.555 246.783 67.9527 223.6 90.6424V66.0221C245.877 47.1801 269.669 34.3098 291.776 25.524C292.192 25.3539 292.605 25.1906 293.018 25.0305C296.336 29.2222 299.201 33.7544 301.565 38.551C301.768 38.9478 301.958 39.3412 302.151 39.728Z" fill="#FDF4F4"/>
<path d="M279.324 11.9033L277.876 12.9269C259.491 20.2323 239.951 30.3552 221.086 44.3959C219.628 41.9217 217.667 39.7823 215.329 38.1165C212.992 36.4507 210.331 35.2957 207.519 34.7265C223.235 21.8772 240.499 11.053 258.905 2.50732C259.467 2.6607 260.022 2.82186 260.57 2.99079C267.245 4.97047 273.572 7.97721 279.324 11.9033Z" fill="#FDF4F4"/>
<path d="M135.051 27.7646C130.27 33.5796 125.669 39.7902 121.247 46.3965L120.768 47.1201L118.184 47.5302C113.371 48.2947 108.986 50.7524 105.819 54.4622C105.546 54.7956 105.286 55.109 105.037 55.4424C102.87 54.0665 100.703 52.7005 98.5342 51.3446C105.104 39.3034 112.699 27.8522 121.234 17.1182L122.839 15.9446C127.242 19.5246 131.328 23.4793 135.051 27.7646Z" fill="#FDF4F4"/>
<path d="M106.202 5.52832C99.652 13.8483 93.6688 22.6005 88.2932 31.7257C86.3577 35 84.471 38.3665 82.6332 41.8253C81.2881 41.0628 79.9397 40.3104 78.588 39.568C74.9323 37.5541 71.25 35.6391 67.541 33.823C71.2606 26.3635 75.3554 19.0976 79.8099 12.0535C82.4135 7.92566 85.097 3.94787 87.8604 0.120117C89.8713 0.413534 91.8334 0.789195 93.7467 1.2471C98.0267 2.2683 102.198 3.70206 106.202 5.52832Z" fill="#FDF4F4"/>
<path d="M65.1175 0.180176C61.8169 5.44611 58.6495 10.9599 55.6153 16.7215C53.9373 19.9269 52.3048 23.2111 50.7178 26.5743C49.0819 25.963 47.4361 25.3829 45.7803 24.8338C43.9313 24.2159 42.0713 23.639 40.2002 23.1033C42.9303 16.4192 45.8369 10.023 48.9199 3.91457C54.175 2.11003 59.6035 0.858481 65.1175 0.180176Z" fill="#FDF4F4"/>
<path d="M225.305 0C207.001 10.5146 190.201 23.4613 175.364 38.4876L168.226 39.6146C179.159 23.39 197.821 3.65437 225.305 0Z" fill="#FDF4F4"/>
<path d="M206.071 51.788V144.814C206.059 149.485 204.581 154.035 201.846 157.818C197.211 164.31 189.217 168.604 180.151 168.604C165.858 168.604 154.229 157.935 154.229 144.811C154.228 143.251 154.394 141.695 154.725 140.17C156.599 131.501 163.641 124.499 172.773 121.998C175.177 121.337 177.658 121 180.151 120.998H193.119V85.3208L169.614 89.0552L164.786 89.8188L124.727 96.1539L123.991 96.2706V155.621C123.991 162.413 120.875 168.551 115.884 172.889C110.926 177.143 104.6 179.462 98.0715 179.418C83.7784 179.418 72.1521 168.748 72.1521 155.621C72.1488 152.692 72.7318 149.791 73.8668 147.092C77.0996 139.369 84.5974 133.575 93.7 132.151C95.1463 131.926 96.6079 131.815 98.0715 131.817H111.03V64.765C111.03 63.2194 111.581 61.7246 112.584 60.5498C113.587 59.375 114.975 58.5972 116.5 58.3565L131.625 55.9659L149.747 53.1017L155.307 52.2215L156.736 51.9947L186.5 47.2901L198.58 45.3962C199.504 45.2515 200.449 45.3087 201.35 45.5641C202.25 45.8194 203.085 46.2668 203.796 46.8756C204.508 47.4843 205.08 48.24 205.472 49.0909C205.865 49.9417 206.069 50.8674 206.071 51.8047V51.788Z" fill="#FDF4F4"/>
</svg>
