<svg xmlns="http://www.w3.org/2000/svg" viewBox="0 0 554.02 228.55"><defs><style>.cls-1{fill:#FFFFFF;}</style></defs><g id="Layer_2" data-name="Layer 2"><g id="Layer_1-2" data-name="Layer 1"><path class="cls-1" d="M247.47,110.76c-17.39,0-30-13.62-30-32.39,0-19.84,12.94-33.18,32.21-33.18,10.7,0,21.21,7.64,21.21,15.41a5.37,5.37,0,0,1-5.64,5.47c-3.38,0-5.47-2.16-5.47-5.64s-1-11.24-10.54-11.24c-12.53,0-21.62,12.2-21.62,29,0,16.29,9.29,28.57,21.62,28.57,3.79,0,9.06-.69,12.91-3.94V84.28H251.06v-4h21.23V99.14l-.14.23C267.87,106.5,258.65,110.76,247.47,110.76Z"/><path class="cls-1" d="M281.66,109.79a.52.52,0,0,1-.53-.52V72.92c0-5.23-.6-7.56-4.21-7.56h-.47A1.38,1.38,0,0,1,275.09,64a1.56,1.56,0,0,1,1-1.83c2-.38,4.29-.72,6.54-1.05s4.35-.65,6.18-1a4.73,4.73,0,0,1,.84-.09,1.68,1.68,0,0,1,1.65,1.69v7l.78-.78c.94-1,1.75-1.8,2.48-2.56,3.18-3.36,4.94-5.21,9.3-5.21a11,11,0,0,1,6.94,2.58,4.26,4.26,0,0,1,.94,4.78A5.31,5.31,0,0,1,307,70.91a4.1,4.1,0,0,1-3-1.25c-1.47-1.48-3.14-3.15-4.58-3.15a2.72,2.72,0,0,0-1.94.95l-6.22,6.13v35.68a.52.52,0,0,1-.52.52Z"/><path class="cls-1" d="M335.18,110.67c-13.8,0-24.2-10.56-24.2-24.56,0-14.7,11-25.79,25.7-25.79,11.35,0,18.14,7.66,18.14,15.06,0,5.46-4,9-10.22,9H321.13v.69c0,7.52,4.49,18.71,16.87,18.71,7.55,0,12-5.54,15.34-11a1.25,1.25,0,0,1,1.07-.6,1.89,1.89,0,0,1,1.43.83,1.36,1.36,0,0,1,.25,1.21l0,.06,0,.07C352,102.43,346.45,110.67,335.18,110.67Zm5.28-29.59c3.92,0,6-3.88,6-7.72,0-4.85-3.12-9.75-10.09-9.75S323,71,321.29,81.08Z"/><path class="cls-1" d="M383.62,110.67c-13.8,0-24.21-10.56-24.21-24.56,0-14.7,11-25.79,25.7-25.79,11.36,0,18.14,7.66,18.14,15.06,0,5.46-4,9-10.22,9H369.56v.69c0,7.52,4.5,18.71,16.87,18.71,7.56,0,12-5.54,15.35-11a1.23,1.23,0,0,1,1.06-.6,1.89,1.89,0,0,1,1.43.83,1.3,1.3,0,0,1,.25,1.21l0,.06,0,.07C400.48,102.43,394.88,110.67,383.62,110.67Zm5.28-29.59c3.91,0,6-3.88,6-7.72,0-4.85-3.12-9.75-10.1-9.75s-13.3,7.43-15,17.47Z"/><path class="cls-1" d="M450.83,110.58c-7,0-7.59-6.41-7.59-8.37V75.73c0-5.08-3.62-9.22-8.07-9.22-2.74,0-5.59,1.6-8,4.49l-3.38,4v34.31a.52.52,0,0,1-.52.53h-9.1a.53.53,0,0,1-.53-.53V68.87c0-3.24-1.38-3.24-1.83-3.24-1.1,0-2.17.78-3.6,2.59a1.23,1.23,0,0,1-1,.53,2.21,2.21,0,0,1-1.69-1,1.29,1.29,0,0,1-.11-1.29l0-.07,0-.07c2.61-3.61,6.93-6,10.74-6,7,0,7.58,6.41,7.58,8.38v1.12l.72-.87c4.43-5.37,10.1-8.45,15.54-8.45,8,0,13.39,6.16,13.39,15.32v26.21c0,3.24,1.37,3.24,1.83,3.24,1.09,0,2.17-.77,3.59-2.58a1.25,1.25,0,0,1,1-.53,2.21,2.21,0,0,1,1.69,1.05,1.34,1.34,0,0,1,.11,1.29l0,.07-.05.06C459,108.15,454.64,110.58,450.83,110.58Z"/><path class="cls-1" d="M239.54,181.19V122.12a.57.57,0,0,0-.6-.56c-7.86.44-14.44,2.9-19.66,7.49h0a1.09,1.09,0,0,1-1.81-.82V118a.56.56,0,0,1,.55-.56h53.72a.56.56,0,0,1,.56.56v11.41a.56.56,0,0,1-.93.42l-.89-.79c-5.22-4.59-11.92-7.05-19.78-7.49a.56.56,0,0,0-.6.56v59.07a.56.56,0,0,1-.56.55h-9.44A.55.55,0,0,1,239.54,181.19Z"/><path class="cls-1" d="M318.9,182.54c-7.12,0-7.67-6.48-7.67-8.47V147.28c0-5.14-3.67-9.32-8.17-9.32-2.77,0-5.66,1.61-8.14,4.54l-3.5,4.08v34.54a.62.62,0,0,1-.62.62h-9a.61.61,0,0,1-.62-.62V126c0-5.29-.62-3.21-4.26-3.21l-.48,0h0a1.4,1.4,0,0,1-1.38-1.36,1.58,1.58,0,0,1,1-1.85c2-.38,4.33-.73,6.61-1.07s4.41-.65,6.26-1a4.21,4.21,0,0,1,.86-.1,1.7,1.7,0,0,1,1.66,1.72v22.14l.81-1c4.49-5.43,10.22-8.55,15.72-8.55,8.11,0,13.55,6.23,13.55,15.5v26.53c0,3.27,1.39,3.27,1.85,3.27,1.17,0,2.33-.83,3.65-2.62a1.32,1.32,0,0,1,1.06-.53,2.15,2.15,0,0,1,1.67,1,1.36,1.36,0,0,1,.12,1.34l0,.07,0,.06C327.13,180.09,322.76,182.54,318.9,182.54Z"/><path class="cls-1" d="M335.22,181.74a.59.59,0,0,1-.59-.59V144.44c0-5.29-.61-7.65-4.26-7.65h-.48a1.39,1.39,0,0,1-1.37-1.35,1.57,1.57,0,0,1,1-1.86c2-.38,4.34-.73,6.62-1.06s4.4-.66,6.26-1a4.29,4.29,0,0,1,.87-.1,1.7,1.7,0,0,1,1.64,1.72v7.1l.79-.79c1-1,1.78-1.82,2.51-2.59,3.23-3.4,5-5.27,9.41-5.27a11,11,0,0,1,7,2.61,4.32,4.32,0,0,1,1,4.84,5.4,5.4,0,0,1-4.78,3.36,4.14,4.14,0,0,1-3-1.27c-1.49-1.49-3.18-3.18-4.64-3.18a2.76,2.76,0,0,0-2,.95l-6.3,6.21v36a.58.58,0,0,1-.59.59Z"/><path class="cls-1" d="M388.32,182.63c-14,0-24.49-10.68-24.49-24.85,0-14.87,11.18-26.09,26-26.09,11.49,0,18.36,7.75,18.36,15.24,0,5.52-4.06,9.09-10.35,9.09H374.1v.7c0,7.61,4.55,18.94,17.07,18.94,7.64,0,12.14-5.61,15.53-11.1a1.22,1.22,0,0,1,1.07-.61,1.92,1.92,0,0,1,1.45.85,1.32,1.32,0,0,1,.25,1.22l0,.07,0,.06C405.38,174.3,399.72,182.63,388.32,182.63Zm5.34-29.94c4,0,6-3.93,6-7.81,0-4.91-3.16-9.86-10.22-9.86s-13.47,7.52-15.22,17.67Z"/><path class="cls-1" d="M450.68,182.72c-7.12,0-7.67-6.48-7.67-8.47v-2c-3,5.63-8.28,10.36-15.11,10.36-8.52,0-14.71-5.17-14.71-12.3,0-8.37,6-13.5,20.06-17.16,2.58-.68,5.67-1.35,9.67-2.09v-3.71c0-8.72-5.41-11.82-10-11.82-5.45,0-9,4.15-9,10.58,0,2.93-2.43,4.46-4.82,4.46s-4.92-1.56-4.92-4.55c0-8.93,14.85-14.35,21.38-14.35,11.87,0,17.64,5.39,17.64,16.48V174c0,3.28,1.39,3.28,1.85,3.28,1.11,0,2.2-.78,3.64-2.62a1.28,1.28,0,0,1,1-.53,2.23,2.23,0,0,1,1.71,1.06,1.32,1.32,0,0,1,.11,1.31l0,.07,0,.06C458.78,180.32,454.55,182.72,450.68,182.72Zm-7.76-28.3a71.92,71.92,0,0,0-8.69,2c-11.12,3.62-11.12,8.86-11.12,11.68,0,5.07,4.21,7.81,8.17,7.81,6.59,0,10-6.28,11.64-11.61Z"/><path class="cls-1" d="M503.92,182.72a7.05,7.05,0,0,1-7.38-5.73,18.91,18.91,0,0,1-13.62,5.73c-10.29,0-20.67-7.52-20.67-24.31,0-15.48,10.45-26.72,24.85-26.72a23.11,23.11,0,0,1,9.15,1.72V126c0-5.29-.61-3.21-4.26-3.21l-.48,0h0a1.39,1.39,0,0,1-1.37-1.36,1.56,1.56,0,0,1,1-1.85l12.9-2.07a4.16,4.16,0,0,1,.8-.09,1.57,1.57,0,0,1,1.69,1.7V174c0,3.28,1.28,3.28,1.76,3.28,1.17,0,2.33-.84,3.65-2.62a1.35,1.35,0,0,1,1.07-.53,2.14,2.14,0,0,1,1.67,1,1.38,1.38,0,0,1,.11,1.34l0,.07,0,.06C512,180.32,507.79,182.72,503.92,182.72ZM487.64,135c-6.28,0-15.12,6.84-15.12,22,0,12.29,5.22,19.92,13.6,19.92,4.78,0,7.65-1.41,10.13-5V139.71C493.78,136.6,490.88,135,487.64,135Z"/><path class="cls-1" d="M535.5,182.72c-5.31,0-13.58-2.31-16.73-3.84l-.48-.23-2.21-16.71v-.06c0-1,1.12-1.39,1.92-1.39a1.3,1.3,0,0,1,1.38,1c3,12.27,10.3,17.88,15.85,17.88,6.59,0,11.37-3.77,11.37-9,0-5.46-6-7.28-12.94-9.38-8.24-2.49-17.58-5.32-17.58-15.54s8.25-13.81,15.32-13.81c5.28,0,11.43,1.65,16.37,3l.65.18,2.05,16.48v.06c0,1-1.12,1.33-1.87,1.33h-.15l-.3-.06-.69-.23-.05-.62c-2.92-15.14-12-16.78-15.74-16.78-5.12,0-8.17,2.62-8.17,7,0,5.29,6,7.08,13.06,9.14,8.19,2.41,17.46,5.15,17.46,14.8C554,176.85,544.48,182.72,535.5,182.72Z"/><path class="cls-1" d="M26.2,67.43A90.25,90.25,0,0,1,36.47,49.6a97,97,0,0,1,31.79-27A123.54,123.54,0,0,1,152.5,10.66a94.77,94.77,0,0,1,20.85,7.19A81.35,81.35,0,0,1,192,30.08a78.79,78.79,0,0,0-17.37-14.55,99,99,0,0,0-20.79-9.65,116.08,116.08,0,0,0-22.55-5,127.43,127.43,0,0,0-23.2-.66A130.36,130.36,0,0,0,62.73,11.5,110.86,110.86,0,0,0,24.59,40.1,103,103,0,0,0,3,83.48a125.28,125.28,0,0,0-3,24.1,68.37,68.37,0,0,0,3.79,25.67,54.14,54.14,0,0,0,6.27,12.22,54.7,54.7,0,0,0,9.27,10.29,62.06,62.06,0,0,0,16.43,10q.08,3.16.25,6.35a139.11,139.11,0,0,0,3.5,24.43,80.83,80.83,0,0,0,4.11,12.65,57,57,0,0,0,3.25,6.56,44.64,44.64,0,0,0,4.89,6.75l1.27,1.45a14.68,14.68,0,0,0,2.61,2.27A14,14,0,1,0,71.31,203a12.27,12.27,0,0,1-2.16-2,30.51,30.51,0,0,1-2.29-3.22,51.15,51.15,0,0,1-4-8.33A97.79,97.79,0,0,1,58,171.23a41.15,41.15,0,0,0,4.77.21c2.1,0,4.09-.12,6.1-.24,4-.23,8-.6,11.9-1.14s7.89-1.17,11.8-2a133,133,0,0,0,23.22-7A100.49,100.49,0,0,0,127,155.7a81.77,81.77,0,0,0,10.6-6.94,68.47,68.47,0,0,0,26-43.13A54.9,54.9,0,0,0,162,79.79a42,42,0,0,0-6.1-12,40.07,40.07,0,0,0-9.71-9.39,46.1,46.1,0,0,0-11.8-5.77A61.79,61.79,0,0,0,122,50a86,86,0,0,0-12.32-.39A70.74,70.74,0,0,0,97.34,51.3,61.58,61.58,0,0,0,74.47,61.84,74,74,0,0,0,57.33,79.91a105.94,105.94,0,0,0-11.14,21.62,146.08,146.08,0,0,0-6.68,23c-.81,3.89-1.49,7.8-2,11.74-.3,2.17-.57,4.34-.79,6.52a37.11,37.11,0,0,1-4.18-2.86,33.53,33.53,0,0,1-10.34-13.73,42.23,42.23,0,0,1-2.53-8.82,57.15,57.15,0,0,1-.93-9.68,107.35,107.35,0,0,1,1.6-20.61A90.59,90.59,0,0,1,26.2,67.43ZM57,127.53c1.86-14,5.86-27.75,13-39.36a56.77,56.77,0,0,1,13.07-15,45.79,45.79,0,0,1,17.48-8.67,55.65,55.65,0,0,1,9.87-1.57,59.39,59.39,0,0,1,10.16.22,37.11,37.11,0,0,1,17.9,6.24,26.11,26.11,0,0,1,6.21,6.38,26.48,26.48,0,0,1,3.69,8.16,38,38,0,0,1-.07,18.71,50.89,50.89,0,0,1-8,17.56A49.63,49.63,0,0,1,134,127.4a51,51,0,0,1-7.55,5.81,83.74,83.74,0,0,1-18.06,8.37,144,144,0,0,1-20.11,5.08c-3.45.61-6.92,1.17-10.41,1.61s-7,.78-10.5,1c-1.74.12-3.49.22-5.14.27a32.24,32.24,0,0,1-4.17-.17c-.75-.07-1.5-.16-2.25-.26,0-.15,0-.29,0-.44A140.1,140.1,0,0,1,57,127.53Z"/></g></g></svg>