<svg xmlns="http://www.w3.org/2000/svg" xmlns:xlink="http://www.w3.org/1999/xlink" viewBox="0 0 556.45 102.62"><defs><style>.cls-1{fill:#fff;}.cls-2{fill:url(#linear-gradient);}</style><linearGradient id="linear-gradient" x1="188.58" y1="51.42" x2="298.59" y2="51.42" gradientUnits="userSpaceOnUse"><stop offset="0" stop-color="#00a4ff"/><stop offset="0.11" stop-color="#268fec"/><stop offset="0.36" stop-color="#7265c7"/><stop offset="0.58" stop-color="#af44a9"/><stop offset="0.77" stop-color="#da2b93"/><stop offset="0.91" stop-color="#f51d86"/><stop offset="1" stop-color="#ff1781"/></linearGradient></defs><g id="Layer_2" data-name="Layer 2"><g id="Layer_1-2" data-name="Layer 1"><path class="cls-1" d="M11.23,34.29l-.63-.07a50.17,50.17,0,0,1,9.2-20.1A36.25,36.25,0,0,1,36.3,2q9.9-3.6,21.5-.8a31,31,0,0,1,15.4,8.6A39.19,39.19,0,0,1,82.3,25a60.47,60.47,0,0,1,2.9,19v56.2H74V46q0-15.2-5.2-24.4T51.6,10q-10-2.19-18.1,1.6a31.72,31.72,0,0,0-13.4,12.2,52.07,52.07,0,0,0-7.1,20,152.54,152.54,0,0,0-1.8,23.8v32.6H0V2.62H11.2V12"/><path class="cls-1" d="M115.76,72.42a32.47,32.47,0,0,0,11.1,14.8q7.7,5.81,19.7,5.8,12.8,0,20.9-6.5t11.9-19.1h11a48,48,0,0,1-14.5,25.3q-10.91,9.9-28.9,9.9-15.6,0-25.9-7.5a43.13,43.13,0,0,1-15-19.3,65.7,65.7,0,0,1-4.7-24.6,64.27,64.27,0,0,1,4.7-24.4,43.35,43.35,0,0,1,15-19.1Q131.35.22,147,.22q15.19,0,25.4,7.2a43.37,43.37,0,0,1,15.2,19.3,67.52,67.52,0,0,1,4.8,26.9H112A59.42,59.42,0,0,0,115.76,72.42Zm12.6-57.5A33.87,33.87,0,0,0,117,28.22a48.93,48.93,0,0,0-4.8,17.4h69a40.32,40.32,0,0,0-4.2-16.8,35.43,35.43,0,0,0-11.7-13.6q-7.71-5.4-18.7-5.4Q135.76,9.82,128.36,14.92Z"/><path class="cls-1" d="M369,72.42h-.2a52.28,52.28,0,0,1-7,13.2,39.54,39.54,0,0,1-10.4,10.2,42.35,42.35,0,0,1-14.4,5.8,53.57,53.57,0,0,1-16.8.6,28.76,28.76,0,0,1-12.6-4.6,28.46,28.46,0,0,1-9.3-10,27.2,27.2,0,0,1-3.5-13.6q0-12,6.6-18.6a34.18,34.18,0,0,1,16.6-9c2.93-.66,6.2-1.3,9.8-1.9s6.93-1.1,10-1.5q10.6-1.8,14.4-2.6l2.6-.6a23.38,23.38,0,0,0,8.6-3.9c1.87-1.53,2.53-3.7,2-6.5a22.29,22.29,0,0,0-4.7-9.6,25.57,25.57,0,0,0-9.9-7.3,34.72,34.72,0,0,0-14-2.7,34,34,0,0,0-15.4,3.5,26.94,26.94,0,0,0-10.9,9.6,24.22,24.22,0,0,0-3.9,13.3h-11a33.09,33.09,0,0,1,5.2-17.9,36.87,36.87,0,0,1,14.7-13.2A46.29,46.29,0,0,1,337,.22a44.88,44.88,0,0,1,21.4,5A36.53,36.53,0,0,1,373,19a38.17,38.17,0,0,1,5.2,19.8v48a3.37,3.37,0,0,0,1,2.3,3.33,3.33,0,0,0,2.6,1.1h7v10H380a11.12,11.12,0,0,1-7.9-3.1,10.12,10.12,0,0,1-3.3-7.7m-10-44.4a156.88,156.88,0,0,1-16.2,4.2q-7.2,1.61-17,3.2a27.66,27.66,0,0,0-14.2,6.6q-5.81,5.2-5.8,13.8a19.09,19.09,0,0,0,5.2,13.3,20.14,20.14,0,0,0,12.4,6.7,48.77,48.77,0,0,0,13.2.2c3.74-.53,7.93-2.26,12.6-5.2A32,32,0,0,0,360.33,77a43.93,43.93,0,0,0,5.7-14.2,62.25,62.25,0,0,0,1-11.4V41Q364.83,43,358.83,45Z"/><path class="cls-1" d="M454.57,2.62v10.2q-12.6,0-20.9,5.7a33,33,0,0,0-12.1,14.9,50.93,50.93,0,0,0-3.8,19.6v47.2h-11.2v-85a2.44,2.44,0,0,0-.6-1.8,2.44,2.44,0,0,0-1.8-.6h-9V2.62h15.2a6.44,6.44,0,0,1,4.6,1.7,5.68,5.68,0,0,1,1.8,4.3c0,4.8-.27,22.31-.27,22.31h0a41,41,0,0,1,7.77-14.71A36.33,36.33,0,0,1,437,6.42,42.83,42.83,0,0,1,454.57,2.62Z"/><path class="cls-1" d="M536.58,72.42h-.13a52.28,52.28,0,0,1-7,13.2,39.69,39.69,0,0,1-10.4,10.2,42.35,42.35,0,0,1-14.4,5.8,53.57,53.57,0,0,1-16.8.6,28.67,28.67,0,0,1-12.6-4.6,28.37,28.37,0,0,1-9.3-10,27.09,27.09,0,0,1-3.5-13.6q0-12,6.6-18.6a34.18,34.18,0,0,1,16.6-9c2.93-.66,6.2-1.3,9.8-1.9s6.93-1.1,10-1.5c7.07-1.2,11.86-2.06,14.4-2.6l2.6-.6a23.46,23.46,0,0,0,8.6-3.9q2.79-2.3,2-6.5a22.41,22.41,0,0,0-4.7-9.6,25.57,25.57,0,0,0-9.9-7.3,34.75,34.75,0,0,0-14-2.7,34,34,0,0,0-15.4,3.5,26.94,26.94,0,0,0-10.9,9.6,24.22,24.22,0,0,0-3.9,13.3h-11a33.09,33.09,0,0,1,5.2-17.9,36.74,36.74,0,0,1,14.7-13.2,46.29,46.29,0,0,1,21.5-4.9,44.91,44.91,0,0,1,21.4,5A36.59,36.59,0,0,1,540.65,19a38.26,38.26,0,0,1,5.2,19.8v48a3.37,3.37,0,0,0,1,2.3,3.33,3.33,0,0,0,2.6,1.1h7v10h-8.8a11.12,11.12,0,0,1-7.9-3.1,10.12,10.12,0,0,1-3.3-7.7m-10-44.4a156.88,156.88,0,0,1-16.2,4.2q-7.2,1.61-17,3.2a27.63,27.63,0,0,0-14.2,6.6q-5.81,5.2-5.8,13.8a19.09,19.09,0,0,0,5.2,13.3,20.11,20.11,0,0,0,12.4,6.7,48.77,48.77,0,0,0,13.2.2q5.59-.8,12.6-5.2A32,32,0,0,0,528,77a43.93,43.93,0,0,0,5.7-14.2,63.14,63.14,0,0,0,1-11.4V41Q532.44,43,526.45,45Z"/><path class="cls-2" d="M262.31,58a8.26,8.26,0,0,0,0-13.42l-11-7.92,47.29-34-15.4,0L243.6,31.11,204,2.62H188.58l47.31,34-11.47,8.25a7.87,7.87,0,0,0,0,12.76l11.47,8.25-47.31,34.3H204l39.6-28.75,39.59,28.75h15.4L251.3,65.92ZM231,51.29,243.6,42.2l12.63,9.09L243.6,60.38Z"/></g></g></svg>