<svg xmlns="http://www.w3.org/2000/svg" xmlns:xlink="http://www.w3.org/1999/xlink" viewBox="0 0 1610 434.01"><defs><style>.cls-1{fill:url(#linear-gradient);}.cls-2{fill:url(#linear-gradient-2);}.cls-3{fill:#f1f2f2;}</style><linearGradient id="linear-gradient" x1="158.54" y1="237.94" x2="316.55" y2="62.63" gradientUnits="userSpaceOnUse"><stop offset="0.02" stop-color="#9e1f1f"/><stop offset="0.02" stop-color="#9f1f1f"/><stop offset="0.11" stop-color="#bb2727"/><stop offset="0.2" stop-color="#cf2d2d"/><stop offset="0.29" stop-color="#db3030"/><stop offset="0.37" stop-color="#df3131"/><stop offset="0.91" stop-color="#ff7246"/></linearGradient><linearGradient id="linear-gradient-2" x1="-105.47" y1="108.5" x2="248.48" y2="392.56" gradientUnits="userSpaceOnUse"><stop offset="0" stop-color="#ffc32f"/><stop offset="1" stop-color="#ff7246"/></linearGradient></defs><g id="Layer_2" data-name="Layer 2"><g id="Layer_1-2" data-name="Layer 1"><path class="cls-1" d="M332.74.44H14.47A101.26,101.26,0,0,1,115.73,101.71v43.4H231.47V290.58A130.2,130.2,0,0,1,347.2,420h0V14.91A14.46,14.46,0,0,0,332.74.44Z"/><path class="cls-2" d="M347.2,419.54h0A14.46,14.46,0,0,1,332.74,434H14.47A14.47,14.47,0,0,1,0,419.54V14.47A14.47,14.47,0,0,1,14.47,0h0A101.26,101.26,0,0,1,115.73,101.27V273.35a16,16,0,0,0,16,16H217A130.2,130.2,0,0,1,347.2,419.54Z"/><path class="cls-3" d="M466.11,283.8V126.89h32.51V255.11h85.85V283.8Z"/><path class="cls-3" d="M648.36,286A62.58,62.58,0,0,1,616.75,278a61.11,61.11,0,0,1-22.42-21.85,61,61,0,0,1,0-61.42A60.31,60.31,0,0,1,616.75,173,66.72,66.72,0,0,1,680,173a60.23,60.23,0,0,1,22.42,21.75,61.38,61.38,0,0,1,.11,61.42A60.18,60.18,0,0,1,680.19,278,63,63,0,0,1,648.36,286Zm0-26.67a30.79,30.79,0,0,0,16.59-4.6,33.16,33.16,0,0,0,11.65-12.22,34.72,34.72,0,0,0,4.26-17.26,33.75,33.75,0,0,0-16-29.14,30.46,30.46,0,0,0-16.25-4.48A31.45,31.45,0,0,0,632,196.15a32.33,32.33,0,0,0-11.65,12.11,34.31,34.31,0,0,0-4.26,17,34.72,34.72,0,0,0,4.26,17.26,33.35,33.35,0,0,0,11.54,12.22A30.19,30.19,0,0,0,648.36,259.37Z"/><path class="cls-3" d="M788.46,331.77a120,120,0,0,1-26.23-2.8,99.14,99.14,0,0,1-22.86-8l10.76-23.76a104.41,104.41,0,0,0,19,7.06,74.69,74.69,0,0,0,18.61,2.35q13.44,0,20.51-5.94t7.06-17.59v-9.19a53.67,53.67,0,0,1-32.06,10.31A58.75,58.75,0,0,1,732,254.77a59.12,59.12,0,0,1-7.85-30.15,57.84,57.84,0,0,1,8-30,58.59,58.59,0,0,1,21.63-21.29,60.6,60.6,0,0,1,30.71-7.85,58.18,58.18,0,0,1,16.37,2.36,53.68,53.68,0,0,1,14.79,6.83V167h30.49V283.58q0,23.09-14.91,35.64T788.46,331.77Zm-.23-73.3a40.42,40.42,0,0,0,15.25-2.8,33.63,33.63,0,0,0,11.88-8v-45.5a34.55,34.55,0,0,0-12.11-7.85,41.31,41.31,0,0,0-15-2.69A34.12,34.12,0,0,0,771,196a33.06,33.06,0,0,0-12.1,11.88,32,32,0,0,0-4.49,16.7,34,34,0,0,0,4.38,17.26A32.48,32.48,0,0,0,770.86,254,34,34,0,0,0,788.23,258.47Z"/><path class="cls-3" d="M889.78,153.11A16.8,16.8,0,0,1,877.45,148a17.08,17.08,0,0,1-5.16-12.55,16.44,16.44,0,0,1,5.16-12.22,17.74,17.74,0,0,1,24.77,0,16.64,16.64,0,0,1,5,12.22,17.29,17.29,0,0,1-5,12.55A16.7,16.7,0,0,1,889.78,153.11ZM874.54,283.8V167h30.71V283.8Z"/><path class="cls-3" d="M985.05,286a60.15,60.15,0,0,1-52.79-29.7,60.6,60.6,0,0,1,21.85-83.5,60.5,60.5,0,0,1,30.94-8.07,67.72,67.72,0,0,1,26.78,5.38,59.81,59.81,0,0,1,21.63,15.47l-18.6,19.95A44.33,44.33,0,0,0,1001.3,195a35.3,35.3,0,0,0-15.36-3.36A30.26,30.26,0,0,0,958.59,208a36.84,36.84,0,0,0-4,17.49,35,35,0,0,0,4.26,17.15,32.7,32.7,0,0,0,11.43,12.21,30.22,30.22,0,0,0,16.36,4.49A32.76,32.76,0,0,0,1001.3,256a46,46,0,0,0,13.11-10.08l18.38,19.28a65.68,65.68,0,0,1-21.52,15.35A63.73,63.73,0,0,1,985.05,286Z"/><path class="cls-3" d="M1095.56,283.8V126.89h32.5V255.11h85.85V283.8Z"/><path class="cls-3" d="M1282.51,286a62.87,62.87,0,0,1-54.25-29.92,57.46,57.46,0,0,1-8.3-30.6,60,60,0,0,1,29.59-52.45,58.48,58.48,0,0,1,30.27-8.08,55.3,55.3,0,0,1,29.92,8.19,57.6,57.6,0,0,1,20.62,22.3q7.52,14.13,7.51,32.28v8.07h-86.52a34,34,0,0,0,6.72,12.55,31.61,31.61,0,0,0,11.44,8.63,35,35,0,0,0,14.57,3,43.35,43.35,0,0,0,14.34-2.35,31.2,31.2,0,0,0,11.43-6.84L1330,269.23A70.13,70.13,0,0,1,1282.51,286Zm-31.61-72.18h56.94a32.81,32.81,0,0,0-5.94-12.21,29.35,29.35,0,0,0-10-8.19,27.72,27.72,0,0,0-12.55-2.91,29.54,29.54,0,0,0-13,2.8,26.07,26.07,0,0,0-9.75,8.07A34.46,34.46,0,0,0,1250.9,213.86Z"/><path class="cls-3" d="M1397.5,285.82a50.52,50.52,0,0,1-22-4.6,36.4,36.4,0,0,1-15-12.66,32.81,32.81,0,0,1-5.38-18.61q0-16.81,12.56-26.11t35-9.31a86.2,86.2,0,0,1,28.69,4.71v-8.52q0-10.08-6.28-15.24t-18.38-5.16a61.63,61.63,0,0,0-15.91,2.36,135,135,0,0,0-19.73,7.28l-11-22.86a169.69,169.69,0,0,1,26.45-9.19,103.17,103.17,0,0,1,25.1-3.14q24,0,37,11.32t13,31.94V283.8h-30.26v-8.29a48.94,48.94,0,0,1-15.47,7.84A64.45,64.45,0,0,1,1397.5,285.82Zm-13.22-36.54a12.23,12.23,0,0,0,5.82,10.65q5.84,3.92,15.47,3.92a52,52,0,0,0,14-1.79,35.53,35.53,0,0,0,11.77-5.83v-17a48.78,48.78,0,0,0-11.66-3.47,79.38,79.38,0,0,0-13-1q-10.53,0-16.48,3.81A12.08,12.08,0,0,0,1384.28,249.28Z"/><path class="cls-3" d="M1487.16,329.53V167h30.26v9.64q14.13-11.21,33.18-11.21a55.84,55.84,0,0,1,30,7.85,60.62,60.62,0,0,1,21.41,21.63,59.36,59.36,0,0,1,8,30.6,58.24,58.24,0,0,1-8.07,30.37,59.84,59.84,0,0,1-52.23,29.48,56.66,56.66,0,0,1-16.92-2.47,59.63,59.63,0,0,1-14.91-6.95v53.58Zm58.51-70.16A34.72,34.72,0,0,0,1563,255a32,32,0,0,0,12.22-12.22,34.18,34.18,0,0,0,4.48-17.26,33.08,33.08,0,0,0-16.7-29.37,34.08,34.08,0,0,0-17.37-4.48,42.91,42.91,0,0,0-15.69,2.8,30.74,30.74,0,0,0-12.11,8.41v45.5a34.15,34.15,0,0,0,12.22,8.07A41.39,41.39,0,0,0,1545.67,259.37Z"/></g></g></svg>