<?xml version="1.0" encoding="utf-8"?>
<!-- Generator: Adobe Illustrator 25.4.1, SVG Export Plug-In . SVG Version: 6.00 Build 0)  -->
<svg version="1.1" id="Layer_1" xmlns="http://www.w3.org/2000/svg" xmlns:xlink="http://www.w3.org/1999/xlink" x="0px" y="0px"
	 viewBox="0 0 240 240" style="enable-background:new 0 0 240 240;" xml:space="preserve">
<style type="text/css">
	.st0{fill-rule:evenodd;clip-rule:evenodd;fill:#FFFFFF;}
</style>
<g>
	<path class="st0" d="M69.6,89.9c-9.9-6.3-16.3-17.5-16.3-30.1c0-19.8,16.1-35.9,35.9-35.9h61.5c19.8,0,35.9,16.1,35.9,35.9
		c0,12.6-6.5,23.6-16.3,30.1c9.9,6.3,16.3,17.5,16.3,30.1c0,19.8-16.1,35.9-35.9,35.9h-0.7c-9.4,0-17.8-3.6-24.3-9.4v33.4
		c0,20-16.4,36.2-36.3,36.2c-19.8,0-36-16-36-35.9c0-12.6,6.5-23.6,16.3-30.1c-9.9-6.3-16.3-17.5-16.3-30.1S59.9,96.4,69.6,89.9z
		 M125.8,120c0,13.5,10.8,24.3,24.3,24.3h0.7c13.5,0,24.3-10.8,24.3-24.3s-10.8-24.3-24.3-24.3h-0.7
		C136.6,95.7,125.8,106.5,125.8,120z M114.2,95.7h-25c-13.5,0-24.3,10.8-24.3,24.3c0,13.4,10.8,24.2,24.2,24.3l0,0h25V95.7H114.2z
		 M89.2,155.9L89.2,155.9c-13.5,0-24.3,10.9-24.3,24.3s10.9,24.3,24.4,24.3c13.7,0,24.7-11.1,24.7-24.6v-24H89.2z M114.2,84.1h-25
		c-13.5,0-24.3-10.8-24.3-24.3s10.8-24.3,24.3-24.3h25V84.1z M150.8,84.1h-25V35.5h25c13.5,0,24.3,10.8,24.3,24.3
		S164.1,84.1,150.8,84.1z"/>
</g>
</svg>
