<svg xmlns="http://www.w3.org/2000/svg" xmlns:xlink="http://www.w3.org/1999/xlink" viewBox="0 0 1364.25 634.35"><defs><style>.cls-1{fill:url(#linear-gradient);}.cls-2{fill:#fff;}</style><linearGradient id="linear-gradient" x1="315.89" x2="315.89" y2="634.35" gradientUnits="userSpaceOnUse"><stop offset="0.3" stop-color="#60f"/><stop offset="1" stop-color="#60f"/></linearGradient></defs><g id="Layer_2" data-name="Layer 2"><g id="Layer_4" data-name="Layer 4"><path class="cls-1" d="M317.17,113.72c28.44,37.84,71.59,61.18,121.61,61.35-40.9,87.7-31.82,171.42-12.26,233.51a419.36,419.36,0,0,0,19.84,50.85c-2.34-.1-4.69-.16-7-.16-50.25,0-93.61,23.38-122.16,61.35-28.54-38-71.9-61.35-122.15-61.35a157.43,157.43,0,0,0-21.47,1.48,152.34,152.34,0,0,0-59.5-143.58,152.31,152.31,0,0,0,59.5-143.57A159,159,0,0,0,195,175.07c50.25,0,93.61-23.37,122.15-61.35M317.17,0c0,86-56.88,139.07-122.15,139.07-34.06,0-70.38-14.43-102.12-46.17,92.56,92.56,38,224.27-92.9,224.27,130.9,0,185.46,131.72,92.9,224.28C124.63,509.72,161,495.27,195,495.27c65.27,0,122.15,53.06,122.15,139.08,0-86,56.89-139.08,122.16-139.08,34.05,0,70.38,14.44,102.12,46.18,0,0-214.9-233.65,0-448.55-31.73,31.73-68.07,46.17-102.12,46.17C374.05,139.07,317.17,86,317.17,0Zm66,227.47c-45.27,31.49-66,8.93-66-47.83,0,56.76-57.12,80.42-97.25,40.28,40.13,40.14,16.48,97.25-40.28,97.25,56.76,0,80.41,57.12,40.28,97.25,40.13-40.13,97.25-16.47,97.25,40.29,0-56.76,26.19-67.92,68.06-44.94C385.23,409.77,320.55,336.92,383.19,227.47Zm163.4,51.32c8.29,16.32-18.27,38.38-46.21,38.38,27.94,0,54.5,22.07,46.21,38.39,8.29-16.32,57.25-38.39,85.18-38.39C603.84,317.17,554.88,295.11,546.59,278.79Z"/><path class="cls-2" d="M778.35,167h36.47V467.35H778.35V281.13a228.8,228.8,0,0,1,5.58-50.2h-6a99,99,0,0,1-14.8,27.24,76.77,76.77,0,0,1-23.82,20.6,71.69,71.69,0,0,1-32.18,8.8v-33.9q36-2.58,53.64-27.46T778.35,167Z"/><path class="cls-2" d="M1084.79,379.39h39.48l-.43.86a152.93,152.93,0,0,1-22.53,42.48q-15.22,20.59-42.26,35.18T993.83,472.5q-47.62,0-79.17-23A135.52,135.52,0,0,1,868.32,391a192.5,192.5,0,0,1,0-148,133.54,133.54,0,0,1,46.56-58.35q31.74-22.74,79-22.74,38.61,0,65.65,14.8t42.26,35.4A151.33,151.33,0,0,1,1124.27,255h-39.48a102.77,102.77,0,0,0-33.25-42.91Q1029,194.89,993.4,194.88q-35.19,0-58.57,18a104,104,0,0,0-34.11,45.69A158.19,158.19,0,0,0,890,316.32a163.81,163.81,0,0,0,10.73,59,103.65,103.65,0,0,0,34.11,46.13q23.38,18,58.57,18,34.76,0,57.07-16.52a102.89,102.89,0,0,0,33.47-41.83Z"/><path class="cls-2" d="M1364.25,377.67q0,28.75-13.94,50.21a91.92,91.92,0,0,1-38,33q-24,11.58-54.92,11.58-30.47,0-54.71-11.37T1164.51,429q-14-20.81-13.94-47.84v-3.87H1187v3.87q0,18.45,9.66,31.75a58.87,58.87,0,0,0,25.53,19.95,90,90,0,0,0,35.18,6.65,87,87,0,0,0,35.4-7.08,55.82,55.82,0,0,0,25.31-21.67q9.23-14.58,9.23-36.47,0-20.6-9.65-34.75a58.55,58.55,0,0,0-25.32-21,84.2,84.2,0,0,0-34.11-6.86h-48.06V282.85l91-82.82H1166.44V167h188.8v29.18l-101.69,92.25v6.44q3-1.71,13.73-3a96.28,96.28,0,0,1,20.17-.43,100,100,0,0,1,35.82,12.44q17.38,9.88,29.18,28.54T1364.25,377.67Z"/></g></g></svg>