<?xml version="1.0" encoding="utf-8"?>
<!-- Generator: Adobe Illustrator 25.4.1, SVG Export Plug-In . SVG Version: 6.00 Build 0)  -->
<svg version="1.1" id="Layer_1" xmlns="http://www.w3.org/2000/svg" xmlns:xlink="http://www.w3.org/1999/xlink" x="0px" y="0px"
	 viewBox="0 0 634.3 634.3" style="enable-background:new 0 0 634.3 634.3;" xml:space="preserve">
<style type="text/css">
	.st0{fill:#FFFFFF;}
</style>
<g id="Layer_2_00000124150568429566737010000016218495592979295616_">
	<g id="Layer_4">
		<path class="st0" d="M318.5,113.7c28.4,37.8,71.6,61.2,121.6,61.4c-40.9,87.7-31.8,171.4-12.3,233.5c5.5,17.4,12.1,34.3,19.8,50.9
			c-2.3-0.1-4.7-0.2-7-0.2c-50.2,0-93.6,23.4-122.2,61.3c-28.5-38-71.9-61.4-122.1-61.4c-7.2,0-14.4,0.5-21.5,1.5
			c7.9-55.1-14.9-110.2-59.5-143.6c44.6-33.4,67.4-88.4,59.5-143.6c7.1,1,14.3,1.5,21.4,1.5C246.5,175.1,289.9,151.7,318.5,113.7
			 M318.5,0c0,86-56.9,139.1-122.1,139.1c-34.1,0-70.4-14.4-102.1-46.2c92.6,92.6,38,224.3-92.9,224.3
			c130.9,0,185.5,131.7,92.9,224.3c31.7-31.7,68.1-46.2,102.1-46.2c65.3,0,122.1,53.1,122.1,139.1c0-86,56.9-139.1,122.2-139.1
			c34,0,70.4,14.4,102.1,46.2c0,0-214.9-233.6,0-448.5c-31.7,31.7-68.1,46.2-102.1,46.2C375.3,139.1,318.5,86,318.5,0z M384.5,227.5
			c-45.3,31.5-66,8.9-66-47.8c0,56.8-57.1,80.4-97.2,40.3c40.1,40.1,16.5,97.2-40.3,97.2c56.8,0,80.4,57.1,40.3,97.2
			c40.1-40.1,97.2-16.5,97.2,40.3c0-56.8,26.2-67.9,68.1-44.9C386.5,409.8,321.8,336.9,384.5,227.5L384.5,227.5z M547.9,278.8
			c8.3,16.3-18.3,38.4-46.2,38.4c27.9,0,54.5,22.1,46.2,38.4c8.3-16.3,57.2-38.4,85.2-38.4C605.1,317.2,556.2,295.1,547.9,278.8
			L547.9,278.8z"/>
	</g>
</g>
</svg>
