<?xml version="1.0" encoding="utf-8"?>
<!-- Generator: Adobe Illustrator 25.4.1, SVG Export Plug-In . SVG Version: 6.00 Build 0)  -->
<svg version="1.1" id="Layer_1" xmlns="http://www.w3.org/2000/svg" xmlns:xlink="http://www.w3.org/1999/xlink" x="0px" y="0px"
	 viewBox="0 0 240 240" style="enable-background:new 0 0 240 240;" xml:space="preserve">
<style type="text/css">
	.st0{fill:#FFFFFF;}
</style>
<g>
	<path class="st0" d="M182.7,65.9c0.1,3.5-1.1,6.9-3.5,9.4c-2.3,2.5-5.7,3.8-9.1,3.6c-3.3,0.1-6.5-1.2-8.9-3.6
		c-2.3-2.6-3.5-5.9-3.4-9.4c-0.1-3.5,1.2-6.8,3.6-9.1c2.4-2.4,5.6-3.6,8.9-3.6c3.9,0,6.9,1.2,9.1,3.6
		C181.6,59.3,182.8,62.6,182.7,65.9z"/>
	<path class="st0" d="M181.3,89v79c0,1.1-0.4,1.6-1.3,1.6h-19.6c-1,0-1.5-0.6-1.5-1.6V89c0-1,0.4-1.4,1.3-1.4H180
		C180.9,87.6,181.3,88.1,181.3,89z"/>
	<path class="st0" d="M147.8,167.5L111.2,61.8c-0.1-0.5-0.5-0.8-1.3-0.8h-26c-0.5,0.1-0.9,0.6-0.8,1.1c0,2.3-0.2,4.5-0.6,6.7
		c-0.4,1.2-0.7,2.4-1,3.4l-32.3,95.1c-0.3,1.2,0,1.8,1.1,1.8h18.8c0.9,0.1,1.7-0.5,1.9-1.4l7.6-24.1H116l8.2,24.4
		c0.2,0.7,0.9,1.2,1.6,1.1h21C147.8,169.1,148.1,168.6,147.8,167.5z M84.6,122.7c1.5-4.2,3-8.9,4.4-14c1.6-5,3.1-10,4.6-14.8
		C95,89.6,96.1,85.3,97,81h0.2c0.7,2.4,1.4,5,2.2,7.8c0.8,2.9,1.7,5.8,2.7,8.9c1,3.1,1.9,6.1,2.9,9.2c0.9,3,1.8,5.9,2.7,8.6
		c0.9,2.6,1.7,5.1,2.3,7.2H84.6z"/>
</g>
<g>
	<path class="st0" d="M197.7,0H42.3C18.8,0-0.3,19.5-0.3,43.6v152.8c0,24.1,19,43.6,42.6,43.6h155.3c23.5,0,42.6-19.5,42.6-43.6
		V43.6C240.3,19.5,221.2,0,197.7,0z M231.3,196.4c0,19.1-15.1,34.6-33.6,34.6H42.3c-18.5,0-33.6-15.5-33.6-34.6V43.6
		C8.7,24.5,23.8,9,42.3,9h155.3c18.5,0,33.6,15.5,33.6,34.6V196.4z"/>
</g>
</svg>
