<?xml version="1.0" encoding="utf-8"?>
<!-- Generator: Adobe Illustrator 25.4.1, SVG Export Plug-In . SVG Version: 6.00 Build 0)  -->
<svg version="1.1" id="Layer_1" xmlns="http://www.w3.org/2000/svg" xmlns:xlink="http://www.w3.org/1999/xlink" x="0px" y="0px"
	 viewBox="0 0 240 240" style="enable-background:new 0 0 240 240;" xml:space="preserve">
<style type="text/css">
	.st0{fill:#FFFFFF;}
</style>
<g id="Layer_2_1_">
	<g id="Surfaces">
		<g id="Photo_Surface">
			<g id="Outline_no_shadow">
				<path class="st0" d="M198.4,145.1c0.1,4.7-1.3,9.4-3.9,13.3c-2.8,4-6.7,7.1-11.2,8.9c-4.9,2.1-10.9,3.2-18.1,3.2
					c-4.6,0-9.1-0.4-13.6-1.3c-3.5-0.6-7-1.7-10.2-3.2c-0.7-0.4-1.2-1.1-1.1-1.9v-17.4c0-0.3,0.1-0.7,0.4-0.9
					c0.3-0.2,0.6-0.1,0.9,0.1c3.9,2.3,8,3.9,12.4,4.9c3.8,1,7.8,1.5,11.8,1.5c3.8,0,6.5-0.5,8.3-1.4c1.6-0.7,2.7-2.4,2.7-4.2
					c0-1.4-0.8-2.7-2.4-4c-1.6-1.3-4.9-2.8-9.8-4.7c-5.1-1.8-9.8-4.2-14.2-7.2c-3.1-2.2-5.7-5.1-7.6-8.5c-1.6-3.2-2.4-6.7-2.3-10.2
					c0-4.3,1.2-8.4,3.4-12.1c2.5-4,6.2-7.2,10.5-9.2c4.7-2.4,10.6-3.5,17.7-3.5c4.1,0,8.3,0.3,12.4,0.9c3,0.4,5.9,1.2,8.6,2.3
					c0.4,0.1,0.8,0.5,1,0.9c0.1,0.4,0.2,0.8,0.2,1.2v16.3c0,0.4-0.2,0.8-0.5,1c-0.9,0.2-1.4,0.2-1.8,0c-3-1.6-6.2-2.7-9.6-3.4
					c-3.7-0.8-7.4-1.3-11.2-1.3c-2-0.1-4.1,0.2-6,0.7c-1.3,0.3-2.4,1-3.1,2c-0.5,0.8-0.8,1.8-0.8,2.7c0,0.9,0.4,1.8,1,2.6
					c0.9,1.1,2.1,2,3.4,2.7c2.3,1.2,4.7,2.3,7.1,3.3c5.4,1.8,10.6,4.3,15.4,7.3c3.3,2.1,6,4.9,7.9,8.3
					C197.7,138,198.5,141.5,198.4,145.1z"/>
				<path class="st0" d="M127.3,85.2c-1.6-4.3-4.1-8.2-7.3-11.4c-3.8-3.7-8.4-6.5-13.4-8.2c-5.6-2.1-12.4-3.1-20.6-3.1
					c-3,0-6,0-9.1,0.1c-3.1,0.1-6,0.1-8.7,0.2c-2.7,0.1-5.2,0.1-7.6,0.2c-2.3,0.1-3.9,0.1-5.6,0.1c-0.7,0-1,0.4-1,1.1v102.9
					c0,0.9,0.4,1.3,1.2,1.3h19.4c0.7-0.1,1.2-0.7,1.1-1.4v-32.1c1.9,0,3.3,0,4.3,0.1c1,0.1,2.6,0.1,5,0.1c8.2,0,15.7-0.9,22.5-3.4
					c6.5-2.4,12.1-6.6,16.1-12.2c4-5.6,6-12.7,6-21.3C129.6,93.7,128.8,89.4,127.3,85.2z M104.7,109.1c-2.2,2.5-5,4.4-8.2,5.3
					c-3.7,1.2-7.6,1.8-11.5,1.8h-5.3c-1.2,0-2.5-0.1-3.9-0.2V82.4c0.7-0.1,2.1-0.2,4.1-0.1c1.9-0.1,4.2-0.1,6.8-0.1
					c4.1-0.1,8.1,0.5,11.8,2c2.9,1.1,5.3,3.1,7,5.7c1.6,2.7,2.4,5.8,2.3,8.9C107.8,103.2,106.8,106.6,104.7,109.1z"/>
			</g>
		</g>
	</g>
</g>
<g id="Layer_2_00000125577665177135466180000016925636484691688324_">
	<g id="Surfaces_00000164513756754937814710000012419845491768853121_">
		<g id="Photo_Surface_00000145059875494167985690000016626652026015412129_">
			<g id="Outline_no_shadow_00000110451859319173363150000011481028878202602624_">
				<g>
					<path class="st0" d="M197.3,0H42.7C19.3,0,0.3,19.5,0.3,43.6v152.8c0,24.1,19,43.6,42.4,43.6h154.6c23.4,0,42.4-19.5,42.4-43.6
						V43.6C239.7,19.5,220.7,0,197.3,0z M230.7,196.4c0,18.9-15,34.4-33.4,34.4H42.7c-18.4,0-33.4-15.4-33.4-34.4V43.6
						c0-18.9,15-34.4,33.4-34.4h154.6c18.4,0,33.4,15.4,33.4,34.4V196.4z"/>
				</g>
			</g>
		</g>
	</g>
</g>
</svg>
