<svg width="132" height="27" viewBox="0 0 132 27" fill="none" xmlns="http://www.w3.org/2000/svg">
<g clip-path="url(#clip0_1032_226)">
<path d="M23.3164 17.544C22.6994 13.6144 18.8725 12.1193 13.3392 10.974C9.00208 10.0628 7.32394 9.45513 7.32394 7.55656C7.32394 7.12949 7.44016 6.7261 7.6641 6.36393C7.82946 6.09383 8.05529 5.84566 8.33687 5.63344C9.04838 5.08623 10.1142 4.74598 11.456 4.74598C12.8422 4.74598 14.2614 5.01608 15.6514 5.53172C16.9686 6.01754 18.2621 6.72698 19.4763 7.63286L22.6266 3.60772C22.2373 3.29816 21.8357 3.00614 21.42 2.73429C19.739 1.62584 17.8341 0.82169 15.6504 0.383221C14.4031 0.132417 13.0623 0 11.6204 0C10.2238 0 8.92649 0.17188 7.75292 0.491961C4.20671 1.46098 1.80382 3.80064 1.31908 6.93131C1.25861 7.31716 1.22743 7.71704 1.22743 8.12657C1.22743 13.1768 5.44169 14.7343 11.3747 15.9874C14.5798 16.6679 16.3043 17.1573 16.9742 18.135C17.2038 18.4674 17.3078 18.8568 17.3078 19.3286C17.3078 20.9614 15.7525 22.2523 12.725 22.2523C9.16555 22.2523 6.13714 20.9614 3.47724 18.8348L1.28223 21.2543L0 22.6714C3.27314 25.4811 7.61119 27.0009 12.4803 27.0009C19.3544 27.0009 23.4052 23.6975 23.4052 18.7226C23.4052 18.3069 23.3759 17.9132 23.3164 17.544Z" fill="white"/>
<path d="M35.0257 5.50627H26.2693V0.455994H49.838V5.50627H41.0816V26.544H35.0257V5.50627Z" fill="white"/>
<path d="M53.9709 0.455994H60.0268V26.5449H53.9709V0.455994Z" fill="white"/>
<path d="M64.5273 13.4811C64.5273 6.15171 71.4015 0 79.4615 0C83.7174 0 87.6453 1.67056 90.3865 4.36714L86.0078 8.01257C84.3712 6.26571 82.0392 5.08886 79.4606 5.08886C74.755 5.08886 70.7448 8.96229 70.7448 13.4811C70.7448 18.0377 74.755 21.9111 79.4606 21.9111C82.0383 21.9111 84.3703 20.7343 86.0078 18.9874L90.3865 22.6329C87.6453 25.2908 83.7164 27 79.4615 27C71.4015 27 64.5273 20.8106 64.5273 13.4811Z" fill="white"/>
<path d="M114.488 18.2578C112.888 20.4449 110.247 21.9111 107.328 21.9111C102.622 21.9111 98.6119 18.0377 98.6119 13.4811C98.6119 8.96229 102.622 5.08886 107.328 5.08886C109.675 5.08886 111.843 6.03508 113.433 7.54078H120.69C118.222 3.10962 113.116 0 107.327 0C99.2667 0 92.3926 6.15171 92.3926 13.4811C92.3926 20.8106 99.2667 27 107.328 27C113.612 27 119.094 23.3116 121.266 18.2578H114.488Z" fill="white"/>
<path d="M122.262 13.4811C122.262 15.1517 121.908 16.7653 121.265 18.2587H114.487C115.489 16.8889 116.083 15.2359 116.083 13.4811C116.083 11.1967 115.059 9.07716 113.432 7.54077H120.688C121.694 9.342 122.262 11.3625 122.262 13.4811Z" fill="white"/>
<path d="M129.501 18.2578H125.958V7.53992H129.501C130.881 7.53992 132.001 8.57909 132.001 9.86029V15.9383C132 17.2195 130.881 18.2578 129.501 18.2578Z" fill="#0066CB"/>
</g>
<defs>
<clipPath id="clip0_1032_226">
<rect width="132" height="27" fill="white"/>
</clipPath>
</defs>
</svg>
