<svg width="36" height="36" viewBox="0 0 36 36" fill="none" xmlns="http://www.w3.org/2000/svg">
<path d="M10.4204 6.14514C11.3931 6.12711 12.3645 6.22669 13.3132 6.44172C14.1121 6.61588 14.8705 6.93995 15.5482 7.39671C16.1741 7.85091 16.6694 8.46154 16.9842 9.16729C17.3461 10.0351 17.5207 10.9694 17.4966 11.9092C17.5377 12.941 17.2737 13.9622 16.7377 14.8453C16.1738 15.6794 15.3943 16.3456 14.482 16.7731C15.7201 17.1064 16.7985 17.8699 17.5233 18.9263C18.2191 20.0456 18.5688 21.3449 18.5287 22.6617C18.5516 23.7116 18.3342 24.7528 17.8931 25.7061C17.4853 26.5377 16.8882 27.2624 16.1496 27.8222C15.3892 28.3758 14.5336 28.7855 13.6251 29.0307C12.683 29.291 11.7098 29.4217 10.7323 29.4193H0V6.14514H10.4204ZM9.80116 15.5586C10.5654 15.5901 11.3178 15.3616 11.9351 14.9106C12.2308 14.6477 12.4608 14.3195 12.6067 13.9521C12.7527 13.5846 12.8105 13.1882 12.7757 12.7945C12.7955 12.3346 12.7038 11.8768 12.5084 11.4599C12.3426 11.1279 12.0849 10.8505 11.7659 10.6606C11.4427 10.4515 11.0796 10.3116 10.6996 10.2498C10.2873 10.17 9.86766 10.1338 9.44773 10.1416H4.86197V15.5794H9.80116V15.5586ZM10.0685 25.4673C10.5307 25.4736 10.9919 25.4238 11.4421 25.319C11.8535 25.2283 12.2437 25.0597 12.5915 24.8223C12.9323 24.585 13.2076 24.2657 13.392 23.894C13.6057 23.42 13.704 22.9021 13.6786 22.3829C13.7249 21.9097 13.6622 21.4322 13.4951 20.987C13.328 20.5418 13.0611 20.1408 12.7148 19.8145C11.9807 19.2746 11.0812 19.0072 10.1709 19.0582H4.86197V25.4673H10.0685Z" fill="white"/>
<path d="M25.4533 25.3813C25.8349 25.7345 26.2845 26.0066 26.7746 26.1809C27.2648 26.3553 27.7853 26.4283 28.3046 26.3956C29.1278 26.4164 29.935 26.1663 30.6019 25.6838C31.1444 25.3316 31.5553 24.8103 31.7706 24.2009H35.648C35.2349 25.9357 34.226 27.471 32.7968 28.5399C31.4257 29.4486 29.8053 29.9089 28.1605 29.8567C26.9866 29.8721 25.8215 29.6517 24.7346 29.2087C23.7513 28.7992 22.8695 28.1803 22.1506 27.3951C21.4345 26.5723 20.8844 25.6192 20.5305 24.5879C20.1332 23.4353 19.9388 22.2227 19.9558 21.0038C19.9485 19.8053 20.1495 18.6147 20.5498 17.4849C21.0875 15.8954 22.1157 14.5168 23.4868 13.5471C24.8578 12.5773 26.5013 12.0662 28.1813 12.0871C29.4217 12.0612 30.6482 12.3511 31.7454 12.9294C32.7371 13.4724 33.5927 14.2329 34.2476 15.1537C34.9176 16.1199 35.3979 17.2043 35.6629 18.3494C35.9535 19.579 36.0571 20.8452 35.9703 22.1056H24.4212C24.3277 23.2897 24.6976 24.464 25.4533 25.3813ZM30.5202 16.5299C30.1971 16.2071 29.8083 15.9572 29.3803 15.7971C28.9522 15.6369 28.4948 15.5703 28.0387 15.6016C27.4338 15.5785 26.8331 15.7124 26.2953 15.9901C25.869 16.2245 25.4927 16.5398 25.1875 16.9184C24.9171 17.2733 24.7156 17.6757 24.5935 18.1047C24.4835 18.4625 24.4147 18.8317 24.3886 19.205H31.5419C31.4796 18.2317 31.1245 17.2999 30.5232 16.5314L30.5202 16.5299Z" fill="white"/>
<path d="M32.43 7.69918H23.4664V9.98729H32.43V7.69918Z" fill="white"/>
</svg>
