<svg width="36" height="36" viewBox="0 0 36 36" fill="none" xmlns="http://www.w3.org/2000/svg">
<mask id="mask0_279_291" style="mask-type:alpha" maskUnits="userSpaceOnUse" x="0" y="0" width="36" height="36">
<rect width="36" height="36" fill="#D9D9D9"/>
</mask>
<g mask="url(#mask0_279_291)">
<path d="M4.99696 31.9312C3.80896 31.9312 2.8018 31.518 1.97549 30.6917C1.14918 29.8654 0.736023 28.8582 0.736023 27.6702V8.32979C0.736023 7.14179 1.14918 6.13463 1.97549 5.30831C2.8018 4.482 3.80896 4.06885 4.99696 4.06885H31.003C32.191 4.06885 33.1982 4.482 34.0245 5.30831C34.8508 6.13463 35.264 7.14179 35.264 8.32979V27.6702C35.264 28.8582 34.8508 29.8654 34.0245 30.6917C33.1982 31.518 32.191 31.9312 31.003 31.9312H4.99696ZM18 20.5654L4.99696 12.2334V27.6702H31.003V12.2334L18 20.5654ZM18 16.6407L30.9608 8.32979H5.03915L18 16.6407ZM4.99696 12.2334V8.32979V27.6702V12.2334Z" fill="white"/>
</g>
</svg>
